<svg version="1.1" xmlns="http://www.w3.org/2000/svg" viewBox="0 0 239.41096424285115 232.03125" width="478.8219284857023" height="464.0625">
  <!-- svg-source:excalidraw -->
  <g stroke-linecap="round" transform="translate(10 10) rotate(0 109.70548212142558 106.015625)"><path d="M160.25 10.89 C172.43 15.71, 185.71 28.53, 194.82 38.44 C203.93 48.35, 210.94 58.63, 214.93 70.36 C218.92 82.1, 219.78 96.04, 218.77 108.84 C217.77 121.64, 213.97 135.05, 208.9 147.18 C203.83 159.31, 197.44 172.64, 188.34 181.61 C179.24 190.58, 166.06 196.18, 154.3 201.01 C142.54 205.84, 130.68 209.87, 117.76 210.6 C104.84 211.32, 89.78 208.91, 76.77 205.37 C63.75 201.82, 50.08 196.81, 39.68 189.34 C29.28 181.87, 21.06 171.81, 14.35 160.53 C7.65 149.26, 1.53 134.31, -0.53 121.68 C-2.6 109.05, -0.92 97.47, 1.95 84.75 C4.82 72.02, 8.93 56.29, 16.69 45.34 C24.45 34.39, 37.23 25.96, 48.52 19.05 C59.8 12.13, 71.83 6.9, 84.39 3.83 C96.95 0.76, 103.62 -7.31, 123.88 0.62 C144.15 8.56, 190.53 34.04, 205.99 51.45 C221.44 68.86, 218.72 104.21, 216.62 105.09 M29.56 35.47 C35.68 25.71, 45.05 18.04, 56.51 12.46 C67.97 6.88, 84.47 3.76, 98.33 1.98 C112.18 0.21, 126.52 -0.94, 139.63 1.79 C152.74 4.52, 166.38 10.51, 176.97 18.38 C187.56 26.24, 196.23 37.91, 203.15 48.99 C210.07 60.06, 216.53 72.4, 218.48 84.8 C220.43 97.19, 217.16 110.8, 214.87 123.36 C212.58 135.92, 211.45 149.18, 204.71 160.15 C197.98 171.12, 184.75 181.45, 174.47 189.2 C164.19 196.95, 154.98 202.99, 143.04 206.66 C131.09 210.33, 116.7 212.11, 102.81 211.24 C88.91 210.37, 72.16 206.39, 59.65 201.44 C47.15 196.5, 36.12 190.74, 27.77 181.55 C19.43 172.37, 13.76 159.17, 9.57 146.34 C5.39 133.5, 3.58 117.4, 2.66 104.56 C1.75 91.71, -0.43 81.19, 4.07 69.26 C8.57 57.33, 25.55 38.31, 29.66 32.99 C33.77 27.67, 27.91 35.21, 28.73 37.34" stroke="none" stroke-width="0" fill="#228be6"></path><path d="M191.39 33.23 C200.82 41.09, 205.15 55.3, 210.05 67.04 C214.96 78.78, 220.59 91.13, 220.85 103.67 C221.1 116.21, 216.17 130.39, 211.6 142.29 C207.02 154.18, 201.93 165.62, 193.39 175.06 C184.85 184.49, 172.05 192.55, 160.36 198.91 C148.68 205.26, 136.54 211.81, 123.3 213.19 C110.07 214.57, 93.96 210.5, 80.97 207.2 C67.97 203.91, 56.03 200.87, 45.33 193.43 C34.64 185.99, 24.12 173.43, 16.82 162.58 C9.51 151.73, 3.87 140.44, 1.52 128.32 C-0.84 116.19, 0.54 102.51, 2.67 89.83 C4.8 77.14, 7.88 63.71, 14.3 52.21 C20.71 40.7, 30.72 28.57, 41.16 20.82 C51.59 13.07, 64.33 9.16, 76.89 5.7 C89.44 2.24, 102.82 -0.49, 116.48 0.07 C130.14 0.63, 144.69 1.67, 158.84 9.08 C172.98 16.49, 193.28 35.98, 201.36 44.52 C209.43 53.07, 209.31 59.12, 207.29 60.33 M49.14 21.24 C58.65 13.43, 71.94 9.37, 84.06 5.77 C96.17 2.18, 108.4 -1.41, 121.83 -0.31 C135.25 0.79, 152.77 6.3, 164.6 12.35 C176.43 18.4, 184.34 26.41, 192.81 36.01 C201.28 45.61, 210.7 57.31, 215.41 69.95 C220.13 82.58, 221.97 99.1, 221.11 111.79 C220.26 124.49, 215.85 135.08, 210.28 146.09 C204.71 157.11, 196.41 168.35, 187.68 177.88 C178.95 187.41, 169.59 197.42, 157.89 203.28 C146.2 209.14, 131.48 212.79, 117.52 213.04 C103.57 213.3, 87.37 209.28, 74.16 204.81 C60.96 200.34, 48.64 194.24, 38.31 186.23 C27.98 178.22, 18.63 167.42, 12.2 156.76 C5.78 146.1, 1.51 134.66, -0.23 122.25 C-1.98 109.84, -1.63 95.25, 1.75 82.29 C5.13 69.33, 12.45 55.26, 20.06 44.47 C27.66 33.68, 42.6 21.67, 47.37 17.55 C52.14 13.43, 47.96 18.1, 48.66 19.74" stroke="#000000" stroke-width="4" fill="none"></path></g><g stroke-linecap="round" transform="translate(43.31304776411571 45.60883592812064) rotate(0 77.63636408108948 71.53178037270405)"><path d="M12.7 31.79 C17.96 23.53, 28.9 15.8, 38.99 10.2 C49.08 4.6, 61.75 -1.06, 73.23 -1.81 C84.72 -2.56, 97.35 1.26, 107.89 5.71 C118.44 10.16, 129.34 16.95, 136.53 24.91 C143.72 32.87, 148.34 43.56, 151.04 53.46 C153.74 63.36, 154.43 74.24, 152.74 84.31 C151.06 94.37, 147.24 105.86, 140.94 113.85 C134.63 121.83, 124.84 127.27, 114.93 132.22 C105.02 137.18, 92.68 142.96, 81.45 143.56 C70.22 144.16, 57.92 139.71, 47.57 135.84 C37.22 131.96, 26.87 127.55, 19.34 120.3 C11.82 113.04, 5.49 102.75, 2.4 92.32 C-0.69 81.88, -3.01 70.21, 0.8 57.72 C4.61 45.22, 18.48 24.98, 25.26 17.35 C32.04 9.72, 40.52 10.54, 41.47 11.93 M14.41 30.12 C19.58 21.29, 27.49 15.24, 36.51 10.78 C45.52 6.31, 57.45 3.95, 68.5 3.32 C79.56 2.69, 91.77 3.98, 102.84 6.98 C113.9 9.98, 126.88 14.27, 134.89 21.31 C142.9 28.34, 147.6 39.5, 150.9 49.2 C154.19 58.9, 156 69.55, 154.67 79.52 C153.35 89.48, 148.88 100.34, 142.95 109.01 C137.01 117.68, 128.7 126.02, 119.07 131.53 C109.43 137.03, 96.88 141.05, 85.15 142.03 C73.42 143.01, 59.57 141.12, 48.69 137.41 C37.82 133.71, 27.03 126.66, 19.9 119.82 C12.78 112.98, 8.86 105.77, 5.93 96.36 C3 86.95, 1.32 73.56, 2.31 63.37 C3.31 53.18, 9.97 40.28, 11.9 35.24 C13.82 30.2, 12.55 33.21, 13.87 33.15" stroke="none" stroke-width="0" fill="#fab005"></path><path d="M142.02 34.02 C148.75 41.89, 152.25 53.62, 154.07 63.58 C155.9 73.54, 156.56 84.26, 152.97 93.8 C149.39 103.34, 140.86 113.06, 132.55 120.8 C124.24 128.54, 113.42 136.46, 103.12 140.24 C92.83 144.01, 81.61 144.96, 70.79 143.45 C59.96 141.94, 48.13 136.95, 38.17 131.18 C28.22 125.4, 17.59 117.49, 11.07 108.8 C4.55 100.1, 0.49 89.14, -0.95 78.99 C-2.38 68.85, -1.34 57.58, 2.46 47.95 C6.27 38.32, 13.93 28.28, 21.88 21.22 C29.83 14.16, 39.95 8.95, 50.16 5.59 C60.37 2.22, 72.06 0.11, 83.14 1.02 C94.21 1.94, 105.72 3.96, 116.62 11.08 C127.52 18.21, 142.69 35.88, 148.54 43.79 C154.39 51.69, 152.5 57.78, 151.72 58.52 M54.11 4.79 C64.8 1.99, 81.78 2.21, 93.1 3.55 C104.42 4.89, 113.42 7.55, 122.01 12.83 C130.6 18.11, 139.27 25.91, 144.65 35.22 C150.03 44.53, 153.21 58.16, 154.3 68.7 C155.39 79.24, 155.82 88.57, 151.17 98.48 C146.52 108.38, 135.54 120.92, 126.4 128.12 C117.26 135.33, 107.17 139.6, 96.34 141.68 C85.51 143.77, 71.9 142.68, 61.42 140.61 C50.95 138.53, 41.72 135.54, 33.5 129.23 C25.29 122.92, 17.73 112.01, 12.13 102.75 C6.53 93.49, 0.39 84, -0.11 73.64 C-0.62 63.29, 5.06 49.51, 9.09 40.62 C13.11 31.73, 16.07 26.42, 24.02 20.32 C31.97 14.21, 51.03 6.68, 56.79 4.01 C62.54 1.33, 58.24 2.91, 58.57 4.25" stroke="#000000" stroke-width="4" fill="none"></path></g><g stroke-linecap="round"><g transform="translate(69.8723270257924 134.0390625) rotate(0 49.82942880052781 -17.492953349687156)"><path d="M-0.42 -1.45 C5.58 -6.9, 21.3 -33.16, 33.28 -32.41 C45.25 -31.66, 59.84 4.13, 71.43 3.04 C83.03 1.96, 97.83 -32.2, 102.85 -38.92 M-4.09 3.93 C1.99 -2.28, 19.93 -35.11, 32.27 -36.04 C44.6 -36.97, 58 -1.39, 69.91 -1.65 C81.83 -1.91, 97.67 -31.75, 103.74 -37.61" stroke="#000000" stroke-width="4" fill="none"></path></g></g><mask></mask></svg>
