<svg width="814" height="249" viewBox="0 0 814 249" fill="none" xmlns="http://www.w3.org/2000/svg">
<path d="M295.099 164.6C290.199 164.6 285.799 163.7 281.899 162C277.999 160.2 274.899 157.6 272.599 154.2C270.299 150.7 269.199 146.5 269.199 141.4C269.199 137 269.999 133.4 271.599 130.6C273.199 127.8 275.399 125.5 278.199 123.7C280.999 122 284.099 120.7 287.699 119.8C291.199 118.9 294.799 118.3 298.599 117.9C303.099 117.4 306.799 117 309.599 116.6C312.399 116.2 314.499 115.6 315.799 114.8C317.099 114 317.699 112.7 317.699 110.9V110.6C317.699 106.8 316.599 103.9 314.299 101.8C311.999 99.7 308.799 98.7001 304.599 98.7001C300.099 98.7001 296.599 99.7001 293.999 101.6C291.399 103.5 289.599 105.9 288.699 108.5L271.699 106.1C272.999 101.4 275.299 97.5 278.399 94.3C281.499 91.1 285.299 88.7001 289.699 87.1001C294.199 85.5001 299.099 84.7001 304.499 84.7001C308.199 84.7001 311.899 85.1001 315.599 86.0001C319.299 86.9001 322.699 88.3 325.699 90.3C328.799 92.3 331.199 95.0001 333.099 98.4001C334.999 101.8 335.899 106.1 335.899 111.3V163.1H318.399V152.5H317.799C316.699 154.7 315.099 156.7 313.099 158.5C311.099 160.4 308.599 161.9 305.599 163C302.599 164.1 299.199 164.6 295.099 164.6ZM299.899 151.2C303.599 151.2 306.699 150.5 309.399 149C312.099 147.5 314.199 145.6 315.599 143.2C317.099 140.8 317.799 138.1 317.799 135.3V126.2C317.199 126.7 316.299 127.1 314.899 127.5C313.499 127.9 311.999 128.3 310.299 128.6C308.599 128.9 306.999 129.2 305.299 129.4C303.699 129.6 302.199 129.8 300.999 130C298.299 130.4 295.799 131 293.699 131.8C291.499 132.6 289.899 133.8 288.599 135.3C287.399 136.8 286.699 138.7 286.699 141.1C286.699 144.5 287.899 147 290.399 148.7C292.999 150.4 296.099 151.2 299.899 151.2Z" fill="white"/>
<path d="M363.6 74.6001C360.7 74.6001 358.2 73.6 356.1 71.7C354 69.8 353 67.4 353 64.7C353 61.9 354 59.6 356.1 57.7C358.2 55.8 360.7 54.8 363.6 54.8C366.5 54.8 369 55.8 371 57.7C373.1 59.6 374.1 62 374.1 64.7C374.1 67.4 373.1 69.7 371 71.7C369 73.7 366.5 74.6001 363.6 74.6001ZM354.4 163.1V85.7001H372.6V163.1H354.4Z" fill="white"/>
<path d="M391.398 163.1V85.7H409.098V98.6H409.898C411.298 94.1 413.698 90.7 417.198 88.2C420.598 85.8 424.598 84.5 428.998 84.5C429.998 84.5 431.098 84.5 432.398 84.6C433.698 84.7 434.698 84.8 435.598 85V101.8C434.798 101.5 433.598 101.3 431.898 101.1C430.198 100.9 428.598 100.8 427.098 100.8C423.798 100.8 420.798 101.5 418.198 102.9C415.598 104.3 413.498 106.3 411.998 108.8C410.498 111.3 409.698 114.2 409.698 117.5V163H391.398V163.1Z" fill="white"/>
<path d="M508.899 106.1L492.299 107.9C491.799 106.2 490.999 104.6 489.899 103.2C488.699 101.7 487.199 100.5 485.199 99.6001C483.299 98.7001 480.899 98.2001 477.999 98.2001C474.199 98.2001 470.999 99.0001 468.399 100.7C465.799 102.3 464.599 104.5 464.599 107.1C464.599 109.4 465.399 111.2 467.099 112.6C468.799 114 471.599 115.2 475.499 116.1L488.699 118.9C495.999 120.5 501.499 123 505.099 126.4C508.699 129.8 510.499 134.3 510.499 139.9C510.499 144.8 508.999 149.1 506.199 152.8C503.399 156.5 499.499 159.4 494.499 161.5C489.499 163.6 483.799 164.6 477.399 164.6C467.899 164.6 460.299 162.6 454.499 158.6C448.699 154.6 445.299 149.1 444.199 141.9L461.999 140.2C462.799 143.7 464.499 146.3 467.099 148.1C469.699 149.9 473.099 150.8 477.299 150.8C481.599 150.8 485.099 149.9 487.799 148.1C490.399 146.3 491.799 144.1 491.799 141.5C491.799 139.3 490.999 137.5 489.299 136C487.599 134.6 484.999 133.4 481.399 132.7L468.199 129.9C460.799 128.4 455.299 125.7 451.699 122.1C448.099 118.4 446.399 113.8 446.399 108.1C446.399 103.3 447.699 99.2001 450.299 95.7001C452.899 92.2001 456.599 89.5001 461.299 87.5001C465.999 85.6001 471.499 84.6001 477.699 84.6001C486.799 84.6001 493.899 86.5001 499.099 90.4001C504.299 94.3001 507.699 99.5001 508.899 106.1Z" fill="white"/>
<path d="M562.599 148C562.099 148.1 561.399 148.3 560.399 148.5C559.399 148.7 558.399 148.8 557.199 148.8C555.699 148.8 554.299 148.6 553.099 148.1C551.899 147.6 550.899 146.7 550.099 145.5C549.299 144.2 548.999 142.3 548.999 139.9V99.9H564.299V85.8H548.999V67.3H530.799V85.8H519.799V99.9H530.799V142.9C530.799 147.7 531.799 151.8 533.999 155C536.099 158.2 538.999 160.6 542.699 162.1C546.399 163.6 550.499 164.3 554.999 164.2C557.599 164.1 559.799 163.9 561.599 163.5C563.399 163.1 564.799 162.7 565.799 162.4L562.599 148Z" fill="white"/>
<path d="M601.798 164.6C596.898 164.6 592.498 163.7 588.598 162C584.698 160.2 581.598 157.6 579.298 154.2C576.998 150.7 575.898 146.5 575.898 141.4C575.898 137 576.698 133.4 578.298 130.6C579.898 127.7 582.098 125.5 584.898 123.7C587.698 122 590.798 120.7 594.398 119.8C597.898 118.9 601.498 118.3 605.298 117.9C609.798 117.4 613.498 117 616.298 116.6C619.098 116.2 621.198 115.6 622.498 114.8C623.798 114 624.398 112.7 624.398 110.9V110.6C624.398 106.8 623.298 103.9 620.998 101.8C618.698 99.7 615.498 98.7001 611.298 98.7001C606.798 98.7001 603.298 99.7001 600.698 101.6C598.098 103.5 596.298 105.9 595.398 108.5L578.398 106.1C579.698 101.4 581.998 97.5 585.098 94.3C588.198 91.1 591.998 88.7001 596.398 87.1001C600.898 85.5001 605.798 84.7001 611.198 84.7001C614.898 84.7001 618.598 85.1001 622.298 86.0001C625.998 86.9001 629.398 88.3 632.398 90.3C635.498 92.3 637.898 95.0001 639.798 98.4001C641.698 101.8 642.598 106.1 642.598 111.3V163.1H625.098V152.5H624.498C623.398 154.7 621.798 156.7 619.798 158.5C617.798 160.4 615.298 161.9 612.298 163C609.298 164.1 605.898 164.6 601.798 164.6ZM606.598 151.2C610.298 151.2 613.398 150.5 616.098 149C618.798 147.5 620.898 145.6 622.298 143.2C623.798 140.8 624.498 138.1 624.498 135.3V126.2C623.898 126.7 622.998 127.1 621.598 127.5C620.198 127.9 618.698 128.3 616.998 128.6C615.298 128.9 613.698 129.2 611.998 129.4C610.398 129.6 608.898 129.8 607.698 130C604.998 130.4 602.498 131 600.398 131.8C598.198 132.6 596.598 133.8 595.298 135.3C594.098 136.8 593.398 138.7 593.398 141.1C593.398 144.5 594.598 147 597.098 148.7C599.698 150.4 602.798 151.2 606.598 151.2Z" fill="white"/>
<path d="M694.899 164.6C687.199 164.6 680.499 162.9 674.999 159.5C669.499 156.1 665.199 151.4 662.199 145.4C659.199 139.4 657.699 132.5 657.699 124.7C657.699 116.8 659.199 109.9 662.199 103.9C665.199 97.9001 669.499 93.2 674.999 89.8C680.499 86.4 687.099 84.7001 694.599 84.7001C700.899 84.7001 706.499 85.9001 711.299 88.2001C716.199 90.5001 719.999 93.7001 722.899 97.9001C725.799 102.1 727.399 107 727.799 112.5H710.399C709.699 108.8 707.999 105.7 705.399 103.2C702.799 100.7 699.199 99.4001 694.799 99.4001C691.099 99.4001 687.799 100.4 684.999 102.4C682.199 104.4 679.999 107.3 678.399 111C676.799 114.7 676.099 119.2 676.099 124.4C676.099 129.7 676.899 134.2 678.399 138C679.899 141.8 682.099 144.7 684.899 146.7C687.699 148.7 690.999 149.7 694.799 149.7C697.499 149.7 699.899 149.2 701.999 148.2C704.099 147.2 705.899 145.7 707.399 143.7C708.799 141.8 709.799 139.4 710.399 136.6H727.799C727.399 142.1 725.799 146.9 722.999 151.1C720.199 155.3 716.399 158.6 711.599 161C706.999 163.4 701.399 164.6 694.899 164.6Z" fill="white"/>
<path d="M791.7 163.1H813.5L781.7 119.1L811.7 85.6001H790.4L762.6 116.7H761.3V59.8H743.1V163.1H761.3V137L768 129.9L791.7 163.1Z" fill="white"/>
<path d="M0.800781 42.4L15.4008 50.9V214.5L0.800781 206.1V42.4Z" fill="white"/>
<path d="M30 59.3L44.6 67.7V231.4L30 222.9V59.3Z" fill="white"/>
<path d="M59.2012 93.0001L73.8012 101.4V248.2L59.2012 239.8V93.0001Z" fill="white"/>
<path d="M30 25.6001L44.6 34.0001V50.9001L30 42.5001V25.6001Z" fill="white"/>
<path d="M59.2012 8.70007L73.8012 17.1001V34.0001L59.2012 25.6001V8.70007Z" fill="white"/>
<path d="M73.8008 248.2V231.4L215.501 149.6V166.4L73.8008 248.2Z" fill="#FF284B"/>
<path d="M73.8008 214.5V197.6L215.501 115.8V132.7L73.8008 214.5Z" fill="#FF284B"/>
<path d="M88.4004 172.4V155.5L215.5 82.1001V98.9001L88.4004 172.4Z" fill="#FF284B"/>
<path d="M44.5996 231.4V214.5L59.1996 206.1L59.2996 222.9L44.5996 231.4Z" fill="#FF284B"/>
<path d="M15.4004 214.5V197.6L30.0004 189.2L30.1004 206L15.4004 214.5Z" fill="#FF284B"/>
<path d="M215.501 82.1001L200.901 90.5L59.2012 8.70004L73.8012 0.300049L215.501 82.1001Z" fill="#ABD7D8"/>
<path d="M186.3 98.9001L171.7 107.4L30 25.6001L44.6 17.1001L186.3 98.9001Z" fill="#ABD7D8"/>
<path d="M142.501 107.4L127.901 115.8L0.800781 42.4L15.4008 34L142.501 107.4Z" fill="#ABD7D8"/>
<path d="M215.501 115.8L200.901 124.2L186.301 115.8L200.901 107.3L215.501 115.8Z" fill="#ABD7D8"/>
<path d="M215.501 149.6L200.901 158L186.301 149.6L200.901 141.1L215.501 149.6Z" fill="#ABD7D8"/>
</svg>
