<svg xmlns="http://www.w3.org/2000/svg" width="225" height="225" fill="none"><rect width="225" height="225" fill="#855DCD" rx="50"/><path fill="#fff" d="M58 35h109v155h-16v-71h-.157c-1.768-19.623-18.26-35-38.343-35-20.083 0-36.575 15.377-38.343 35H74v71H58V35z"/><path fill="#fff" d="m29 57 6.5 22H41v89a5 5 0 0 0-5 5v6h-1a5 5 0 0 0-5 5v6h56v-6a5 5 0 0 0-5-5h-1v-6a5 5 0 0 0-5-5h-6V57H29zm123 111a5 5 0 0 0-5 5v6h-1a5 5 0 0 0-5 5v6h56v-6a5 5 0 0 0-5-5h-1v-6a5 5 0 0 0-5-5V79h5.5l6.5-22h-40v111h-6z"/></svg>