<?xml version="1.0" encoding="UTF-8" standalone="no"?>
<svg
   width="100"
   height="30"
   viewBox="0 0 100 30"
   fill="none"
   version="1.1"
   id="svg56"
   sodipodi:docname="Powered_by_Gelato_White.svg"
   inkscape:version="1.2.2 (b0a84865, 2022-12-01)"
   xmlns:inkscape="http://www.inkscape.org/namespaces/inkscape"
   xmlns:sodipodi="http://sodipodi.sourceforge.net/DTD/sodipodi-0.dtd"
   xmlns="http://www.w3.org/2000/svg"
   xmlns:svg="http://www.w3.org/2000/svg">
  <sodipodi:namedview
     id="namedview58"
     pagecolor="#505050"
     bordercolor="#eeeeee"
     borderopacity="1"
     inkscape:showpageshadow="0"
     inkscape:pageopacity="0"
     inkscape:pagecheckerboard="0"
     inkscape:deskcolor="#505050"
     showgrid="false"
     inkscape:zoom="4.0101192"
     inkscape:cx="66.456877"
     inkscape:cy="22.443223"
     inkscape:window-width="1512"
     inkscape:window-height="916"
     inkscape:window-x="0"
     inkscape:window-y="38"
     inkscape:window-maximized="1"
     inkscape:current-layer="svg56" />
  <path
     d="m 16.740287,9.9815097 c -0.002,0.3336303 -0.3082,0.5696003 -0.6393,0.5347003 -0.8208,-0.08651 -1.5728,-0.07932 -2.2758,-0.006 -1.5303,0.15965 -2.802,0.63232 -3.9744002,1.06808 l -0.0026,9.6e-4 c -0.0709,0.02637 -0.1415,0.0526 -0.2118,0.07862 -1.2449,0.46107 -2.392,0.857699 -3.753,0.889179 -0.5429,0.01256 -1.1279,-0.03316 -1.7719,-0.162909 -0.5525,-0.11129 -0.9938,-0.5336 -1.1033,-1.08751 -0.0867,-0.43892 -0.1322,-0.89271 -0.1322,-1.3571503 0,-3.83677 3.1037,-6.94708 6.9322,-6.94708 3.8286002,0 6.9322002,3.11031 6.9322002,6.94708 0,0.01401 0,0.02801 -10e-5,0.042 z"
     fill="url(#paint0_radial_1966_10368)"
     id="path22"
     style="fill:url(#paint0_radial_1966_10368)" />
  <path
     d="m 3.4925868,13.433829 c -0.5206,-0.1253 -0.9956,0.4353 -0.7393,0.9063 l 6.8045,12.5016 c 0.1095,0.2012 0.3977,0.2012 0.5072002,0 l 7.5103,-13.7985 c 0.2664,-0.4894 0.0101,-1.102449 -0.5354,-1.211669 -1.1868,-0.23761 -2.1979,-0.26315 -3.0979,-0.16926 -1.3808,0.14406 -2.5277,0.5698 -3.7182,1.011759 -0.0631,0.02341 -0.1263,0.04687 -0.1896,0.07034 -1.2464002,0.46163 -2.5544002,0.92433 -4.1270002,0.96063 -0.7474,0.0173 -1.5435,-0.0615 -2.4146,-0.2712 z"
     fill="url(#paint1_linear_1966_10368)"
     id="path24"
     style="fill:url(#paint1_linear_1966_10368)" />
  <path
     d="m 9.8086868,13.069229 c 0,-0.14502 0.0903,-0.27457 0.2260002,-0.32483 0.0634,-0.02347 0.1266,-0.04693 0.1897,-0.07034 1.1905,-0.441959 2.3374,-0.867699 3.7182,-1.011759 0.9,-0.09389 1.9111,-0.06835 3.0979,0.16926 0.5455,0.10922 0.8018,0.722269 0.5354,1.211669 l -7.5104,13.7985 c -0.0553,0.1017 -0.1563002,0.152 -0.2568002,0.1509 z"
     fill="url(#paint2_linear_1966_10368)"
     id="path26"
     style="fill:url(#paint2_linear_1966_10368)" />
  <path
     fill-rule="evenodd"
     clip-rule="evenodd"
     d="m 34.341687,7.0606697 c -0.888,-0.25383 -1.713,-0.38074 -2.538,-0.38074 -1.523,0 -2.919,0.38074 -4.1878,1.01526 -1.2691,0.69796 -2.2209,1.64975 -2.9189,2.9188003 -0.698,1.26904 -1.0153,2.665039 -1.0153,4.314739 0,1.6498 0.3808,3.0457 1.0788,4.3148 0.6977,1.269 1.713,2.2208 2.9186,2.9188 1.2056,0.698 2.5376,1.0787 4.0616,1.0787 1.395,0 2.664,-0.2538 3.807,-0.8883 1.142,-0.5711 2.03,-1.4594 2.728,-2.6651 0.698,-1.2056 1.015,-2.6015 1.015,-4.2513 v -0.6979 c 0,-0.0886 0,-0.191 0,-0.3007 l 0.001,-0.1316 c 0,-0.1467 -0.119,-0.2657 -0.266,-0.2657 h -6.577 c -0.147,0 -0.266,0.119 -0.266,0.2657 v 2.3239 c 0,0.1468 0.119,0.2658 0.266,0.2658 h 3.002 c 0.108,0 0.191,0.0963 0.172,0.2027 -0.063,0.3427 -0.152,0.6539 -0.266,0.9394 -0.254,0.698 -0.698,1.1421 -1.332,1.5228 -0.571,0.3173 -1.333,0.5077 -2.284,0.5077 -0.762,0 -1.524,-0.2538 -2.158,-0.6345 -0.698,-0.4442 -1.206,-1.0153 -1.5864,-1.7767 -0.3804,-0.7614 -0.571,-1.6498 -0.571,-2.665 0,-1.0153 0.1906,-1.9036 0.571,-2.665019 0.3804,-0.76144 0.8884,-1.39596 1.5864,-1.77666 0.698,-0.44417 1.46,-0.6345203 2.284,-0.6345203 0.762,0 1.523,0.1903503 2.158,0.5076103 0.564,0.28199 1.078,0.7645 1.497,1.3584 0.086,0.12262 0.255,0.15791 0.379,0.07336 l 2.361,-1.60953 c 0.115,-0.07858 0.15,-0.23331 0.074,-0.3503303 -0.433,-0.66848 -1.014,-1.23272 -1.646,-1.69274 -0.762,-0.50761 -1.46,-0.88835 -2.348,-1.14213 z m 20.323,0.5137 2.832,-0.74578 c 0.168,-0.04438 0.333,0.08271 0.333,0.25697 V 22.721429 c 0,0.1468 -0.119,0.2657 -0.266,0.2657 h -2.831 c -0.147,0 -0.266,-0.1189 -0.266,-0.2657 V 7.8313397 c 0,-0.12069 0.082,-0.22623 0.198,-0.25697 z m 33.403,6.5928593 c 0.444,-0.2538 0.888,-0.3807 1.396,-0.3807 0.571,0 1.015,0.1904 1.396,0.3807 0.38,0.1904 0.698,0.5711 0.951,1.0787 0.254,0.5076 0.381,1.0787 0.381,1.7767 0,0.698 -0.127,1.269 -0.381,1.7767 -0.19,0.5076 -0.507,0.8883 -0.951,1.1421 -0.381,0.2538 -0.889,0.3807 -1.396,0.3807 -0.508,0 -1.016,-0.1269 -1.396,-0.3807 -0.381,-0.2538 -0.698,-0.6345 -0.952,-1.1421 -0.254,-0.5077 -0.381,-1.0787 -0.381,-1.7767 0,-0.698 0.127,-1.2691 0.381,-1.7767 0.19,-0.4441 0.508,-0.8249 0.952,-1.0787 z m 4.568,-2.601509 c -0.888,-0.50762 -1.967,-0.76144 -3.172,-0.76144 -1.142,0 -2.221,0.25382 -3.173,0.76144 -0.952,0.50762 -1.65,1.269049 -2.221,2.220809 -0.571,0.9518 -0.825,2.0305 -0.825,3.2361 0,1.2056 0.318,2.2843 0.825,3.2361 0.508,0.9518 1.269,1.7132 2.221,2.2208 0.952,0.5076 2.031,0.7614 3.173,0.7614 1.142,0 2.22,-0.2538 3.172,-0.7614 0.952,-0.5076 1.65,-1.269 2.221,-2.2208 0.571,-0.9518 0.825,-2.0305 0.825,-3.2361 0,-1.2056 -0.317,-2.2843 -0.825,-3.2361 -0.508,-0.95176 -1.269,-1.713189 -2.221,-2.220809 z m -24.016,10.211909 c 0.025,-0.0402 0.098,-0.0217 0.098,0.0257 v 0.9182 c 0,0.1468 0.118,0.2657 0.265,0.2657 h 2.832 c 0.146,0 0.265,-0.1189 0.265,-0.2657 V 11.45086 c 0,-0.14675 -0.119,-0.26572 -0.265,-0.26572 h -2.832 c -0.147,0 -0.265,0.11897 -0.265,0.26572 v 1.0213 c 0,0.08723 -0.116,0.123809 -0.169,0.05464 -0.178,-0.231628 -0.376,-0.446828 -0.593,-0.643698 -0.698,-0.69796 -1.65,-1.01523 -2.792,-1.01523 -1.015,0 -1.903,0.25383 -2.728,0.82492 -0.762,0.50761 -1.396,1.269038 -1.84,2.220838 -0.445,0.9518 -0.635,2.0304 -0.635,3.1726 0,1.1421 0.19,2.2208 0.635,3.1726 0.444,0.9518 1.015,1.6498 1.84,2.2209 0.761,0.571 1.713,0.8248 2.728,0.8248 1.206,0 2.094,-0.3807 2.855,-0.8883 0.291,-0.1937 0.491,-0.4637 0.601,-0.638601 z m -1.172,-1.8995 c -0.444,0.2538 -0.888,0.3807 -1.396,0.3807 -0.507,0 -0.951,-0.1269 -1.396,-0.3807 -0.38,-0.2538 -0.697,-0.6345 -0.951,-1.1421 -0.191,-0.5077 -0.318,-1.0787 -0.318,-1.7133 0,-0.6345 0.064,-1.1421 0.318,-1.6498 0.254,-0.4441 0.571,-0.8248 0.951,-1.0786 0.445,-0.2538 0.889,-0.3807 1.396,-0.3807 0.508,0 1.016,0.1269 1.396,0.3807 0.381,0.2538 0.698,0.571 0.952,1.0786 0.191,0.4442 0.318,1.0153 0.318,1.6498 0,0.6346 -0.064,1.2056 -0.318,1.7133 -0.254,0.5076 -0.571,0.8883 -0.952,1.1421 z m 12.016,-6.0915 c -0.048,0 -0.088,0.0396 -0.088,0.0886 v 4.5434 c 0,1.0787 0.444,1.6497 1.332,1.6497 h 1.004 c 0.147,0 0.265,0.119 0.265,0.2658 v 2.3873 c 0,0.1468 -0.118,0.2658 -0.265,0.2658 h -1.448 c -1.332,0 -2.411,-0.3808 -3.109,-1.1422 -0.761,-0.7614 -1.142,-1.8401 -1.142,-3.2361 v -4.7337 c 0,-0.049 -0.04,-0.0886 -0.089,-0.0886 h -1.963 c -0.182,0 -0.31,-0.179 -0.252,-0.3514 l 0.705,-2.070109 c 0.037,-0.10768 0.138,-0.18008 0.252,-0.18008 h 1.258 c 0.049,0 0.089,-0.03966 0.089,-0.08858 V 7.9199497 c 0,-0.12069 0.081,-0.22623 0.198,-0.25697 l 2.943,-0.77505 c 0.112,-0.02959 0.222,0.05514 0.222,0.17131 V 11.09646 c 0,0.04892 0.04,0.08858 0.088,0.08858 h 2.319 c 0.183,0 0.311,0.17899 0.252,0.35137 l -0.705,2.070119 c -0.036,0.1077 -0.138,0.1801 -0.251,0.1801 z m -32.712,-2.982349 c 1.142,0 2.094,0.25383 2.919,0.76144 0.824,0.50761 1.522,1.269049 1.967,2.220809 0.507,0.9518 0.698,2.0305 0.698,3.2361 v 0.5592 c 0,0.1467 -0.119,0.2657 -0.266,0.2657 h -7.531 c -0.107,0 -0.19,0.0949 -0.172,0.2008 0.056,0.3176 0.134,0.5965 0.227,0.8144 0.254,0.5076 0.572,0.8884 0.952,1.0787 0.381,0.1904 0.889,0.3807 1.523,0.3807 0.571,0 1.142,-0.1269 1.523,-0.3172 0.367,-0.1574 0.691,-0.4447 0.971,-0.7904 0.096,-0.1189 0.271,-0.1434 0.39,-0.047 l 1.93,1.5645 c 0.111,0.09 0.131,0.2521 0.041,0.3627 -0.541,0.6614 -1.191,1.1653 -2,1.5117 -0.888,0.3807 -1.84,0.5711 -2.855,0.5711 -1.206,0 -2.284,-0.2538 -3.236,-0.7615 -0.952,-0.5076 -1.65,-1.269 -2.157,-2.2208 -0.508,-0.9518 -0.762,-2.0304 -0.762,-3.2361 0,-1.2056 0.254,-2.2842 0.762,-3.236 0.507,-0.9518 1.205,-1.649799 2.093,-2.220849 0.889,-0.44417 1.841,-0.698 2.983,-0.698 z m -2.138,4.822449 c -0.112,0 -0.196,-0.1024 -0.169,-0.2109 0.111,-0.4565 0.273,-0.8303 0.466,-1.1217 0.381,-0.5711 1.016,-0.8883 1.841,-0.8883 0.761,0 1.396,0.3172 1.776,0.8883 0.19,0.2846 0.348,0.6636 0.459,1.1214 0.027,0.1087 -0.058,0.2112 -0.169,0.2112 z"
     fill="#ffffff"
     id="path28" />
  <defs
     id="defs54">
    <radialGradient
       id="paint0_radial_1966_10368"
       cx="0"
       cy="0"
       r="1"
       gradientUnits="userSpaceOnUse"
       gradientTransform="matrix(-10.431428,6.0736739,-7.2849569,-12.511786,14.011187,5.0186597)">
      <stop
         offset="0.116813"
         stop-color="white"
         id="stop30" />
      <stop
         offset="0.734375"
         stop-color="#8F8F8F"
         id="stop32" />
      <stop
         offset="1"
         stop-color="#9D9D9D"
         id="stop34" />
    </radialGradient>
    <linearGradient
       id="paint1_linear_1966_10368"
       x1="81.999802"
       y1="8.98557"
       x2="81.999802"
       y2="24.0002"
       gradientUnits="userSpaceOnUse"
       gradientTransform="translate(-71.818313,2.9924297)">
      <stop
         stop-color="#919191"
         id="stop37" />
      <stop
         offset="0.46875"
         stop-color="#7E7E7E"
         id="stop39" />
      <stop
         offset="1"
         stop-color="#969696"
         id="stop41" />
    </linearGradient>
    <linearGradient
       id="paint2_linear_1966_10368"
       x1="85.563599"
       y1="8.6191397"
       x2="85.563599"
       y2="25.0002"
       gradientUnits="userSpaceOnUse"
       gradientTransform="translate(-71.818313,2.9924297)">
      <stop
         stop-color="white"
         id="stop44" />
      <stop
         offset="0.197917"
         stop-color="#EDEDED"
         id="stop46" />
      <stop
         offset="1"
         stop-color="#ABABAB"
         id="stop48" />
    </linearGradient>
    <clipPath
       id="clip0_1966_10368">
      <rect
         width="64"
         height="12"
         fill="#ffffff"
         transform="translate(0.5,6)"
         id="rect51"
         x="0"
         y="0" />
    </clipPath>
  </defs>
</svg>
