<?xml version="1.0" encoding="UTF-8" standalone="no"?>
<svg
   height="48"
   viewBox="0 -960 960 960"
   width="48"
   version="1.1"
   id="svg4"
   sodipodi:docname="keyboard_command_key_FILL0_wght400_GRAD0_opsz48 (1).svg"
   inkscape:version="1.2.2 (b0a84865, 2022-12-01)"
   xmlns:inkscape="http://www.inkscape.org/namespaces/inkscape"
   xmlns:sodipodi="http://sodipodi.sourceforge.net/DTD/sodipodi-0.dtd"
   xmlns="http://www.w3.org/2000/svg"
   xmlns:svg="http://www.w3.org/2000/svg">
  <defs
     id="defs8" />
  <sodipodi:namedview
     id="namedview6"
     pagecolor="#505050"
     bordercolor="#eeeeee"
     borderopacity="1"
     inkscape:showpageshadow="0"
     inkscape:pageopacity="0"
     inkscape:pagecheckerboard="0"
     inkscape:deskcolor="#505050"
     showgrid="false"
     inkscape:zoom="4.9166667"
     inkscape:cx="0.71186441"
     inkscape:cy="24.101695"
     inkscape:window-width="1440"
     inkscape:window-height="847"
     inkscape:window-x="0"
     inkscape:window-y="25"
     inkscape:window-maximized="1"
     inkscape:current-layer="svg4" />
  <path
     d="m 258.03464,-115.93221 q -53.899,0 -91.899,-38.101 -38,-38.101 -38,-92 0,-53.899 38.071,-91.899 38.072,-38 91.929,-38 h 70 v -200 h -70 q -53.857,0 -91.929,-38.101 -38.071,-38.101 -38.071,-92 0,-53.899 38.101,-91.899 38.101,-38 92,-38 53.899,0 91.899,38.071 38,38.072 38,91.929 v 70 h 200 v -70 q 0,-53.857 38.101,-91.929 38.101,-38.071 92,-38.071 53.899,0 91.899,38.101 38,38.101 38,92 0,53.899 -38.071,91.899 -38.072,38 -91.929,38 h -70 v 200 h 70 q 53.857,0 91.929,38.101 38.071,38.101 38.071,92 0,53.899 -38.101,91.899 -38.101,38 -92,38 -53.899,0 -91.899,-38.071 -38,-38.072 -38,-91.929 v -70 h -200 v 70 q 0,53.857 -38.101,91.929 -38.101,38.071 -92,38.071 z m -0.017,-60 q 29.118,0 49.618,-20.417 20.5,-20.416 20.5,-49.583 v -70 h -70 q -29.167,0 -49.583,20.382 -20.417,20.383 -20.417,49.5 0,29.118 20.382,49.618 20.383,20.5 49.5,20.5 z m 460,0 q 29.118,0 49.618,-20.382 20.5,-20.383 20.5,-49.5 0,-29.118 -20.417,-49.618 -20.416,-20.5 -49.583,-20.5 h -70 v 70 q 0,29.167 20.382,49.583 20.383,20.417 49.5,20.417 z m -329.882,-200 h 200 v -200 h -200 z m -130,-260 h 70 v -70 q 0,-29.167 -20.382,-49.583 -20.383,-20.417 -49.5,-20.417 -29.118,0 -49.618,20.382 -20.5,20.383 -20.5,49.5 0,29.118 20.417,49.618 20.416,20.5 49.583,20.5 z m 390,0 h 70 q 29.167,0 49.583,-20.382 20.417,-20.383 20.417,-49.5 0,-29.118 -20.382,-49.618 -20.383,-20.5 -49.5,-20.5 -29.118,0 -49.618,20.417 -20.5,20.416 -20.5,49.583 z"
     id="path2" />
  <rect
     style="fill:#000000;stroke-width:20"
     id="rect546"
     width="951.86438"
     height="955.93225"
     x="0"
     y="-960" />
  <path
     style="fill:#ffffff;stroke-width:4.0678"
     d="m 237.88034,-120.34179 c -28.5817,-3.65316 -50.2683,-15.89974 -73.8535,-41.70568 -48.7946,-53.38906 -44.2549,-129.29638 10.687,-178.69384 28.5602,-25.67808 48.1739,-31.46208 106.6888,-31.46208 h 48.0889 v -103.72882 -103.72882 h -48.0889 c -58.5149,0 -78.1286,-5.784 -106.6888,-31.46208 -39.2031,-35.24698 -53.4572,-84.98174 -38.2304,-133.39176 9.5425,-30.33826 41.985,-66.35527 71.021,-78.84622 31.0089,-13.33967 77.8636,-12.21109 107.198,2.58207 19.6724,9.92062 47.5132,38.37681 58.6416,59.93775 9.4575,18.32356 10.7657,26.22992 12.3105,74.40058 l 1.7286,53.89832 h 100.7525 100.7525 l 1.7284,-53.89832 c 1.5448,-48.17066 2.853,-56.07702 12.3106,-74.40058 11.1284,-21.56094 38.9692,-50.01713 58.6415,-59.93775 29.3344,-14.79316 76.1892,-15.92174 107.198,-2.58207 29.0361,12.49095 61.4785,48.50796 71.021,78.84622 15.2268,48.41002 0.9728,98.14478 -38.2304,133.39176 -28.5602,25.67808 -48.1739,31.46208 -106.6888,31.46208 h -48.0888 v 103.72882 103.72882 h 48.0889 c 58.5149,0 78.1286,5.784 106.6888,31.46208 39.1577,35.20608 53.4549,84.98912 38.2715,133.26114 -8.4371,26.8239 -38.6468,62.91408 -63.1092,75.39384 -31.0524,15.84176 -85.2933,16.5904 -114.3242,1.578 -20.6567,-10.682 -48.2295,-38.74002 -59.4682,-60.5147 -9.4576,-18.32358 -10.7658,-26.22992 -12.3106,-74.4006 l -1.7284,-53.89832 h -100.7526 -100.7526 l -1.7286,53.89832 c -1.5448,48.17068 -2.853,56.07702 -12.3105,74.4006 -11.1851,21.6707 -38.7908,49.82198 -59.212,60.38218 -16.8401,8.70834 -51.7778,13.4273 -76.2517,10.29916 z m 39.6205,-56.7864 c 19.391,-5.38544 39.3679,-22.23054 46.4421,-39.1614 3.5485,-8.49266 5.5486,-29.45642 5.5486,-58.15604 v -44.87642 l -37.6271,0.024 c -20.6949,0.0122 -44.4347,1.9134 -52.7551,4.22412 -31.2231,8.66982 -51.9907,36.06314 -51.9907,68.57634 0,30.99514 14.066,52.70656 42.7119,65.9275 18.7897,8.67202 26.7641,9.24774 47.6703,3.44148 z m 459.661,0 c 54.3818,-15.10328 70.7537,-86.93962 28.0107,-122.90542 -17.5196,-14.74182 -36.3726,-19.23896 -80.7658,-19.26574 l -37.6271,-0.022 v 44.87642 c 0,61.69832 10.2548,82.38278 47.411,95.63078 19.1603,6.83162 23.7915,7.0134 42.9712,1.6866 z m -147.3313,-298.80402 v -103.72882 h -101.6949 -101.695 v 103.72882 103.72882 h 101.695 101.6949 z m -260.339,-201.48658 c 0,-50.76846 -4.3855,-65.78814 -24.037,-82.3238 -44.8483,-37.73739 -111.8585,-12.0011 -117.342,45.06704 -2.4189,25.17368 3.9049,44.96762 18.9805,59.411 17.4003,16.67056 38.2196,22.34322 82.7375,22.54362 l 39.661,0.178 z m 407.9078,40.56402 c 20.3147,-5.64144 41.9671,-25.14066 47.909,-43.14482 6.3933,-19.37182 2.8149,-52.27512 -7.1482,-65.72716 -10.8711,-14.6779 -31.8055,-28.45444 -47.7975,-31.45456 -29.0414,-5.4482 -66.7813,14.674 -78.0344,41.60648 -3.5484,8.49266 -5.5486,29.4564 -5.5486,58.15604 v 44.87642 l 37.6271,-0.022 c 20.695,-0.0126 44.5416,-1.9428 52.9926,-4.2897 z"
     id="path252" />
</svg>
