<svg width="32" height="32" fill="none" xmlns="http://www.w3.org/2000/svg"><path d="M16 32c8.837 0 16-7.163 16-16S24.837 0 16 0 0 7.163 0 16s7.163 16 16 16Z" fill="#0052FF"/><path fill-rule="evenodd" clip-rule="evenodd" d="M4.8 16c0 6.186 5.014 11.2 11.2 11.2 6.185 0 11.2-5.014 11.2-11.2 0-6.186-5.015-11.2-11.2-11.2C9.814 4.8 4.8 9.814 4.8 16Zm8.338-3.609a.747.747 0 0 0-.747.747v5.724c0 .413.334.747.747.747h5.724a.747.747 0 0 0 .747-.747v-5.724a.747.747 0 0 0-.747-.747h-5.724Z" fill="#fff"/></svg>