<svg width="256" height="256" viewBox="0 0 256 256" fill="none" xmlns="http://www.w3.org/2000/svg">
<path d="M42.5497 103.304C45.0848 108.697 51.3592 119.359 51.3592 119.359L123.895 0L53.102 49.2072C48.8838 52.0083 45.4229 55.7999 43.025 60.2472C39.8007 66.9567 38.0877 74.2862 38.0055 81.7232C37.9234 89.1602 39.4743 96.5253 42.5497 103.304Z" fill="#2C99E0"/>
<path d="M13.8079 142.607C14.6072 154.023 17.8479 165.139 23.313 175.208C28.7781 185.278 36.3415 194.069 45.4967 200.992L123.8 255.341C123.8 255.341 74.8088 185.063 33.4866 115.132C29.3032 107.744 26.4908 99.6662 25.1842 91.2856C24.6057 87.4906 24.6057 83.6305 25.1842 79.8354C24.1067 81.8227 22.0153 85.8917 22.0153 85.8917C17.8254 94.3977 14.9718 103.493 13.5544 112.861C12.7385 122.763 12.8233 132.719 13.8079 142.607Z" fill="#2C99E0"/>
<path d="M213.573 152.039C211.039 146.644 204.764 135.983 204.764 135.983L132.229 255.342L203.021 206.165C207.24 203.365 210.7 199.574 213.099 195.125C216.327 188.413 218.043 181.078 218.125 173.634C218.207 166.191 216.654 158.82 213.573 152.039Z" fill="#2C99E0"/>
<path d="M242.315 112.735C241.517 101.318 238.276 90.2023 232.81 80.1328C227.346 70.0634 219.782 61.2725 210.628 54.3487L132.324 0C132.324 0 181.284 70.278 222.637 140.209C226.81 147.599 229.612 155.678 230.908 164.055C231.486 167.851 231.486 171.71 230.908 175.505C231.985 173.519 234.077 169.45 234.077 169.45C238.266 160.943 241.121 151.847 242.537 142.48C243.364 132.579 243.29 122.623 242.315 112.735Z" fill="#2C99E0"/>
<path style="mix-blend-mode:color" d="M43.025 60.2472C45.4229 55.7999 48.8837 52.0083 53.102 49.2072L123.895 0L51.3591 119.391C51.3591 119.391 45.0213 108.729 42.5496 103.335C39.4694 96.5526 37.916 89.1818 37.9981 81.7389C38.0802 74.296 39.7959 66.961 43.025 60.2472ZM13.8079 142.607C14.6072 154.023 17.8479 165.139 23.313 175.208C28.7781 185.278 36.3415 194.069 45.4967 200.993L123.8 255.341C123.8 255.341 74.8088 185.063 33.4866 115.132C29.3032 107.744 26.4908 99.6663 25.1842 91.2857C24.6057 87.4907 24.6057 83.6306 25.1842 79.8355C24.1067 81.8228 22.0153 85.8918 22.0153 85.8918C17.8254 94.3978 14.9718 103.493 13.5544 112.861C12.7385 122.764 12.8233 132.719 13.8079 142.607ZM213.447 152.069C210.912 146.675 204.638 136.014 204.638 136.014L132.229 255.341L203.022 206.165C207.239 203.365 210.701 199.573 213.099 195.125C216.328 188.412 218.043 181.077 218.125 173.633C218.207 166.191 216.655 158.82 213.575 152.038L213.447 152.069ZM242.189 112.767C241.389 101.349 238.149 90.2339 232.683 80.1644C227.219 70.0949 219.656 61.3041 210.5 54.3803L132.324 0C132.324 0 181.283 70.278 222.636 140.209C226.809 147.599 229.611 155.678 230.908 164.055C231.486 167.851 231.486 171.71 230.908 175.505C231.985 173.519 234.077 169.45 234.077 169.45C238.266 160.943 241.12 151.847 242.537 142.48C243.363 132.579 243.29 122.623 242.315 112.735L242.189 112.767Z" fill="#4A73F7"/>
</svg>
