<svg width="74" height="74" viewBox="0 0 74 74" fill="none" xmlns="http://www.w3.org/2000/svg">
<path d="M0.0795898 36.9599C0.0795898 16.5475 16.6271 0 37.0395 0C57.4386 0 73.1994 16.24 73.6794 36.7999C73.6794 43.3599 71.4394 48.8799 65.8394 54.0799C61.1072 58.474 53.0394 59.1198 47.1199 55.8398C42.895 53.4026 39.6388 48.2121 36.8795 44.3999L31.7595 52.2399H20.7195L31.1195 36.7994L21.0395 21.5999H32.3995L36.9595 29.4399L41.4395 21.5999H52.8794L42.4795 36.7999C42.4795 36.7999 47.4395 44.3999 50.1594 47.3599C52.8794 50.3199 57.8394 50.3999 61.0394 47.1999C64.5577 43.6816 65.3453 40.8801 65.3594 36.7999C65.4143 21.007 52.87 8.31998 37.0395 8.31998C21.2221 8.31998 8.39957 21.1425 8.39957 36.9599C8.39957 52.7773 21.2221 65.5998 37.0395 65.5998C39.2273 65.5998 41.3244 65.416 43.3595 64.9598L45.2795 73.0398C42.3837 73.6891 39.8839 73.9198 37.0395 73.9198C16.6271 73.9198 0.0795898 57.3723 0.0795898 36.9599Z" fill="#FC4F37"/>
</svg>
